<svg width="38" height="32" viewBox="0 0 38 32" fill="none" xmlns="http://www.w3.org/2000/svg">
<path d="M32.3704 0C36.2407 0 36.8037 0.781512 37.5074 2.62884C37.8593 3.48147 38 4.33409 38 5.25775V6.39454C38 8.31291 37.6481 10.8707 36.5926 13.5707L31.3852 29.344C31.1037 30.1255 30.5407 30.6939 29.8371 30.9781C28.5 31.6886 27.3037 30.9071 26.7407 29.5571L21.8148 15.6312L17.1704 29.5571C16.6074 31.3334 14.7778 32.3281 13.0185 31.9018C11.8926 31.6176 10.9778 30.7649 10.5555 29.6282L1.83496 5.4146C1.6922 5.38786 1.54967 5.35926 1.40741 5.32879C0.633306 5.32879 0 4.68929 0 3.90778C0 3.12619 0.633306 2.48676 1.40741 2.48676C3.72964 2.98411 6.12223 2.98411 8.44446 2.48676C9.21856 2.48676 9.85187 3.12619 9.85187 3.90778C9.85187 4.68929 9.21849 5.32879 8.44446 5.32879C7.72313 5.48328 6.99503 5.58978 6.26435 5.64829C6.66728 5.62359 7.06653 5.58766 7.45928 5.54191L14.7778 26.1466L19 13.4996L15.9741 5.54191C16.9427 5.65057 17.9297 5.70382 18.9256 5.70169C17.543 5.69739 16.1604 5.57309 14.7778 5.32879C14.0037 5.32879 13.3704 4.68936 13.3704 3.90778C13.3704 3.12619 14.0037 2.48676 14.7778 2.48676C17.5926 2.98411 20.4074 2.98411 23.2222 2.48676C23.9963 2.48676 24.6296 3.12619 24.6296 3.90778C24.6296 4.68929 23.9963 5.32879 23.2222 5.32879C22.4938 5.4575 21.7653 5.55291 21.0369 5.615C21.2961 5.59433 21.5554 5.56997 21.8148 5.54191L28.8519 25.5782L31.8778 16.6258C32.1593 15.4179 32.3704 14.4232 32.3704 13.4995C32.3704 11.3385 31.8324 10.2639 31.142 8.88493C31.0833 8.76777 31.0236 8.64842 30.9629 8.52603C30.6977 7.9457 30.3907 7.39342 30.0945 6.86036C29.4477 5.69663 28.8519 4.62455 28.8519 3.5525C28.8519 1.42102 30.5407 0 32.3704 0Z" fill="white"/>
</svg>
