<svg width="36" height="36" viewBox="0 0 36 36" fill="none" xmlns="http://www.w3.org/2000/svg">
<path d="M32.8359 23.2734H31.7812V22.2188C31.7812 20.4741 30.3619 19.0547 28.6172 19.0547H19.0547V16.9453C20.0457 16.9453 21.2309 16.9453 22.2188 16.9453C22.8012 16.9453 23.2734 16.4731 23.2734 15.8906C23.2734 15.3082 22.8012 14.8359 22.2188 14.8359H21.1641V12.7266H24.3281C26.0728 12.7266 27.4922 11.3072 27.4922 9.5625V3.16406C27.4922 1.4194 26.0728 0 24.3281 0H11.6719C9.92721 0 8.50781 1.4194 8.50781 3.16406V9.5625C8.50781 11.3072 9.92721 12.7266 11.6719 12.7266H14.8359V14.8359H13.7812C13.1988 14.8359 12.7266 15.3082 12.7266 15.8906C12.7266 16.4731 13.1988 16.9453 13.7812 16.9453C14.7691 16.9453 15.9543 16.9453 16.9453 16.9453V19.0547H7.38281C5.63815 19.0547 4.21875 20.4741 4.21875 22.2188V23.2734H3.16406C1.4194 23.2734 0 24.6928 0 26.4375V28.5469C0 30.2915 1.4194 31.7109 3.16406 31.7109H4.21875V33.8906H3.16406C2.58159 33.8906 2.10938 34.3628 2.10938 34.9453C2.10938 35.5278 2.58159 36 3.16406 36H7.38281C7.96528 36 8.4375 35.5278 8.4375 34.9453C8.4375 34.3628 7.96528 33.8906 7.38281 33.8906H6.32812V31.7109H7.38281C9.12748 31.7109 10.5469 30.2915 10.5469 28.5469V26.4375C10.5469 24.6928 9.12748 23.2734 7.38281 23.2734H6.32812V22.2188C6.32812 21.6372 6.80126 21.1641 7.38281 21.1641H16.9453V23.2734H15.8906C14.146 23.2734 12.7266 24.6928 12.7266 26.4375V28.5469C12.7266 30.2915 14.146 31.7109 15.8906 31.7109H16.9453V33.8906H15.8906C15.3082 33.8906 14.8359 34.3628 14.8359 34.9453C14.8359 35.5278 15.3082 36 15.8906 36H20.1094C20.6918 36 21.1641 35.5278 21.1641 34.9453C21.1641 34.3628 20.6918 33.8906 20.1094 33.8906H19.0547V31.7109H20.1094C21.854 31.7109 23.2734 30.2915 23.2734 28.5469V26.4375C23.2734 24.6928 21.854 23.2734 20.1094 23.2734H19.0547V21.1641H28.6172C29.1987 21.1641 29.6719 21.6372 29.6719 22.2188V23.2734H28.6172C26.8725 23.2734 25.4531 24.6928 25.4531 26.4375V28.5469C25.4531 30.2915 26.8725 31.7109 28.6172 31.7109H29.6719V33.8906H28.6172C28.0347 33.8906 27.5625 34.3628 27.5625 34.9453C27.5625 35.5278 28.0347 36 28.6172 36H32.8359C33.4184 36 33.8906 35.5278 33.8906 34.9453C33.8906 34.3628 33.4184 33.8906 32.8359 33.8906H31.7812V31.7109H32.8359C34.5806 31.7109 36 30.2915 36 28.5469V26.4375C36 24.6928 34.5806 23.2734 32.8359 23.2734ZM7.38281 25.3828C7.96437 25.3828 8.4375 25.8559 8.4375 26.4375V28.5469C8.4375 29.1284 7.96437 29.6016 7.38281 29.6016H3.16406C2.58251 29.6016 2.10938 29.1284 2.10938 28.5469V26.4375C2.10938 25.8559 2.58251 25.3828 3.16406 25.3828H7.38281ZM11.6719 10.6172C11.0903 10.6172 10.6172 10.1441 10.6172 9.5625V3.16406C10.6172 2.58251 11.0903 2.10938 11.6719 2.10938H24.3281C24.9097 2.10938 25.3828 2.58251 25.3828 3.16406V9.5625C25.3828 10.1441 24.9097 10.6172 24.3281 10.6172C21.7941 10.6172 14.1969 10.6172 11.6719 10.6172ZM20.1094 25.3828C20.6909 25.3828 21.1641 25.8559 21.1641 26.4375V28.5469C21.1641 29.1284 20.6909 29.6016 20.1094 29.6016H15.8906C15.3091 29.6016 14.8359 29.1284 14.8359 28.5469V26.4375C14.8359 25.8559 15.3091 25.3828 15.8906 25.3828H20.1094ZM16.9453 14.8359V12.7266H19.0547V14.8359H16.9453ZM33.8906 28.5469C33.8906 29.1284 33.4175 29.6016 32.8359 29.6016H28.6172C28.0356 29.6016 27.5625 29.1284 27.5625 28.5469V26.4375C27.5625 25.8559 28.0356 25.3828 28.6172 25.3828H32.8359C33.4175 25.3828 33.8906 25.8559 33.8906 26.4375V28.5469Z" fill="white"/>
</svg>
